<?xml version="1.0" standalone="no"?>
<!DOCTYPE svg PUBLIC "-//W3C//DTD SVG 20010904//EN"
 "http://www.w3.org/TR/2001/REC-SVG-20010904/DTD/svg10.dtd">
<svg version="1.0" xmlns="http://www.w3.org/2000/svg"
 width="85.000000pt" height="85.000000pt" viewBox="0 0 85.000000 85.000000"
 preserveAspectRatio="xMidYMid meet">

<g transform="translate(0.000000,85.000000) scale(0.100000,-0.100000)"
fill="#000000" stroke="none">
<path d="M0 809 l0 -42 22 29 c12 16 26 35 31 42 7 9 2 12 -22 12 -30 0 -31
-2 -31 -41z"/>
<path d="M106 825 c-16 -25 -16 -25 18 -25 25 0 38 6 50 25 16 25 16 25 -18
25 -25 0 -38 -6 -50 -25z"/>
<path d="M236 825 c-16 -25 -16 -25 18 -25 25 0 38 6 50 25 16 25 16 25 -18
25 -25 0 -38 -6 -50 -25z"/>
<path d="M366 825 c-16 -25 -16 -25 18 -25 25 0 38 6 50 25 16 25 16 25 -18
25 -25 0 -38 -6 -50 -25z"/>
<path d="M496 825 c-16 -25 -16 -25 18 -25 25 0 38 6 50 25 16 25 16 25 -18
25 -25 0 -38 -6 -50 -25z"/>
<path d="M626 825 c-16 -25 -16 -25 18 -25 25 0 38 6 50 25 16 25 16 25 -18
25 -25 0 -38 -6 -50 -25z"/>
<path d="M756 825 c-16 -25 -16 -25 18 -25 25 0 38 6 50 25 16 25 16 25 -18
25 -25 0 -38 -6 -50 -25z"/>
<path d="M828 748 c-18 -28 -25 -98 -10 -98 17 0 33 47 30 85 l-3 39 -17 -26z"/>
<path d="M17 707 c-12 -19 -17 -42 -15 -70 l3 -41 18 27 c12 19 17 42 15 70
l-3 41 -18 -27z"/>
<path d="M317 723 c-4 -3 -7 -15 -7 -25 0 -11 -7 -18 -20 -18 -15 0 -20 -7
-20 -25 0 -18 5 -25 20 -25 13 0 20 -7 20 -20 0 -19 7 -20 90 -20 89 0 90 0
90 -25 0 -18 -5 -25 -20 -25 -13 0 -20 -7 -20 -20 0 -15 -7 -20 -25 -20 -20 0
-25 -5 -25 -25 0 -18 -5 -25 -20 -25 -15 0 -20 -7 -20 -25 0 -20 -5 -25 -25
-25 -18 0 -25 -5 -25 -20 0 -13 -7 -20 -20 -20 -15 0 -20 -7 -20 -25 0 -18 -5
-25 -19 -25 -13 0 -21 -8 -23 -22 -2 -15 -11 -24 -25 -26 -15 -2 -23 -10 -23
-23 0 -12 -7 -19 -20 -19 -17 0 -20 -7 -20 -50 l0 -50 45 0 c41 0 45 2 45 25
0 18 5 25 19 25 13 0 21 8 23 22 2 15 10 23 23 23 13 0 21 8 23 23 2 14 10 22
23 22 14 0 19 7 19 25 0 18 5 25 20 25 13 0 20 7 20 19 0 13 8 21 23 23 14 2
23 11 25 26 2 14 10 22 23 22 14 0 19 7 19 25 0 20 5 25 25 25 18 0 25 5 25
20 0 13 7 20 20 20 19 0 20 -7 20 -90 0 -83 1 -90 20 -90 15 0 20 -7 20 -25 0
-20 5 -25 25 -25 20 0 25 5 25 25 0 18 5 25 20 25 19 0 20 7 20 115 0 108 -1
115 -20 115 -18 0 -20 7 -20 70 l0 70 -65 0 c-63 0 -65 1 -65 25 l0 25 -108 0
c-60 0 -112 -3 -115 -7z"/>
<path d="M827 574 c-12 -17 -17 -38 -15 -67 l3 -42 18 27 c12 17 17 40 15 66
l-3 40 -18 -24z"/>
<path d="M17 532 c-13 -14 -17 -32 -15 -63 l3 -44 18 27 c12 17 17 40 15 63
-3 37 -3 37 -21 17z"/>
<path d="M828 400 c-10 -13 -18 -42 -18 -64 l0 -40 21 20 c16 16 20 31 17 65
l-3 44 -17 -25z"/>
<path d="M18 360 c-11 -14 -18 -43 -18 -69 l0 -44 21 26 c15 20 19 38 17 69
l-3 43 -17 -25z"/>
<path d="M828 228 c-18 -28 -25 -98 -10 -98 17 0 33 47 30 85 l-3 39 -17 -26z"/>
<path d="M17 187 c-12 -19 -17 -42 -15 -70 l3 -41 18 27 c12 19 17 42 15 70
l-3 41 -18 -27z"/>
<path d="M817 40 l-28 -40 30 0 c29 0 31 2 31 40 0 22 -1 40 -2 40 -2 0 -16
-18 -31 -40z"/>
<path d="M26 25 c-16 -25 -16 -25 18 -25 25 0 38 6 50 25 16 25 16 25 -18 25
-25 0 -38 -6 -50 -25z"/>
<path d="M156 25 c-16 -25 -16 -25 18 -25 25 0 38 6 50 25 16 25 16 25 -18 25
-25 0 -38 -6 -50 -25z"/>
<path d="M286 25 c-16 -25 -16 -25 18 -25 25 0 38 6 50 25 16 25 16 25 -18 25
-25 0 -38 -6 -50 -25z"/>
<path d="M416 25 c-16 -25 -16 -25 18 -25 25 0 38 6 50 25 16 25 16 25 -18 25
-25 0 -38 -6 -50 -25z"/>
<path d="M546 25 c-16 -25 -16 -25 18 -25 25 0 38 6 50 25 16 25 16 25 -18 25
-25 0 -38 -6 -50 -25z"/>
<path d="M676 25 c-16 -25 -16 -25 18 -25 25 0 38 6 50 25 16 25 16 25 -18 25
-25 0 -38 -6 -50 -25z"/>
</g>
</svg>
